HIERARCHY
ROOT Hips
{
	OFFSET 0.00000 0.00000 0.00000
	CHANNELS 6 Xposition Yposition Zposition Zrotation Yrotation Xrotation 
	JOINT LHipJoint
	{
		OFFSET 0 0 0
		CHANNELS 3 Zrotation Yrotation Xrotation
		JOINT LeftUpLeg
		{
			OFFSET 1.58895 -1.83665 0.71753
			CHANNELS 3 Zrotation Yrotation Xrotation
			JOINT LeftLeg
			{
				OFFSET 2.50528 -6.88321 0.00000
				CHANNELS 3 Zrotation Yrotation Xrotation
				JOINT LeftFoot
				{
					OFFSET 2.63244 -7.23257 0.00000
					CHANNELS 3 Zrotation Yrotation Xrotation
					JOINT LeftToeBase
					{
						OFFSET 0.23691 -0.65090 1.72750
						CHANNELS 3 Zrotation Yrotation Xrotation
						End Site
						{
							OFFSET 0.00000 -0.00000 0.92561
						}
					}
				}
			}
		}
	}
	JOINT RHipJoint
	{
		OFFSET 0 0 0
		CHANNELS 3 Zrotation Yrotation Xrotation
		JOINT RightUpLeg
		{
			OFFSET -1.51435 -1.83665 0.71753
			CHANNELS 3 Zrotation Yrotation Xrotation
			JOINT RightLeg
			{
				OFFSET -2.54551 -6.99375 0.00000
				CHANNELS 3 Zrotation Yrotation Xrotation
				JOINT RightFoot
				{
					OFFSET -2.66027 -7.30903 0.00000
					CHANNELS 3 Zrotation Yrotation Xrotation
					JOINT RightToeBase
					{
						OFFSET -0.22981 -0.63138 2.03959
						CHANNELS 3 Zrotation Yrotation Xrotation
						End Site
						{
							OFFSET -0.00000 -0.00000 1.07060
						}
					}
				}
			}
		}
	}
	JOINT LowerBack
	{
		OFFSET 0 0 0
		CHANNELS 3 Zrotation Yrotation Xrotation
		JOINT Spine
		{
			OFFSET -0.02651 1.86275 -0.11152
			CHANNELS 3 Zrotation Yrotation Xrotation
			JOINT Spine1
			{
				OFFSET 0.01019 1.86224 0.04087
				CHANNELS 3 Zrotation Yrotation Xrotation
				JOINT Neck
				{
					OFFSET 0 0 0
					CHANNELS 3 Zrotation Yrotation Xrotation
					JOINT Neck1
					{
						OFFSET -0.01926 1.80512 0.08867
						CHANNELS 3 Zrotation Yrotation Xrotation
						JOINT Head
						{
							OFFSET 0.05516 1.76451 -0.38475
							CHANNELS 3 Zrotation Yrotation Xrotation
							End Site
							{
								OFFSET 0.01592 1.82587 -0.14001
							}
						}
					}
				}
				JOINT LeftShoulder
				{
					OFFSET 0 0 0
					CHANNELS 3 Zrotation Yrotation Xrotation
					JOINT LeftArm
					{
						OFFSET 3.47116 1.51376 0.14491
						CHANNELS 3 Zrotation Yrotation Xrotation
						JOINT LeftForeArm
						{
							OFFSET 4.78095 -0.00000 0.00000
							CHANNELS 3 Zrotation Yrotation Xrotation
							JOINT LeftHand
							{
								OFFSET 3.58615 -0.00000 -0.00000
								CHANNELS 3 Zrotation Yrotation Xrotation
								JOINT LeftFingerBase
								{
									OFFSET 0 0 0
									CHANNELS 3 Zrotation Yrotation Xrotation
									JOINT LeftHandIndex1
									{
										OFFSET 0.65981 -0.00000 0.00000
										CHANNELS 3 Zrotation Yrotation Xrotation
										End Site
										{
											OFFSET 0.53196 -0.00000 0.00000
										}
									}
								}
								JOINT LThumb
								{
									OFFSET 0 0 0
									CHANNELS 3 Zrotation Yrotation Xrotation
									End Site
									{
										OFFSET 0.54008 -0.00000 0.54008
									}
								}
							}
						}
					}
				}
				JOINT RightShoulder
				{
					OFFSET 0 0 0
					CHANNELS 3 Zrotation Yrotation Xrotation
					JOINT RightArm
					{
						OFFSET -3.31725 1.61216 0.35156
						CHANNELS 3 Zrotation Yrotation Xrotation
						JOINT RightForeArm
						{
							OFFSET -4.48913 -0.00000 0.00000
							CHANNELS 3 Zrotation Yrotation Xrotation
							JOINT RightHand
							{
								OFFSET -3.70510 -0.00000 0.00000
								CHANNELS 3 Zrotation Yrotation Xrotation
								JOINT RightFingerBase
								{
									OFFSET 0 0 0
									CHANNELS 3 Zrotation Yrotation Xrotation
									JOINT RightHandIndex1
									{
										OFFSET -0.44914 -0.00000 0.00000
										CHANNELS 3 Zrotation Yrotation Xrotation
										End Site
										{
											OFFSET -0.36211 -0.00000 0.00000
										}
									}
								}
								JOINT RThumb
								{
									OFFSET 0 0 0
									CHANNELS 3 Zrotation Yrotation Xrotation
									End Site
									{
										OFFSET -0.36763 -0.00000 0.36763
									}
								}
							}
						}
					}
				}
			}
		}
	}
}
MOTION
Frames: 8
Frame Time: .0083333
-0.5294 18.6317 5.9041 -1.6331 11.4133 -2.0862 0.0000 0.0000 0.0000 -13.1096 -8.7461 -2.4575 1.6885 8.1847 23.2766 1.1229 -3.6768 -19.1428 8.7591 -16.6502 -55.2531 0.0000 0.0000 0.0000 0.0000 0.0000 0.0000 0.0000 0.0000 0.0000 -0.0000 -0.0000 0.0000 -0.0000 -0.0000 0.0000 6.4005 4.7504 4.2371 2.3470 6.8919 -3.0034 -1.6756 3.2307 -5.0457 -0.7033 -4.7359 -9.6994 -9.2483 -5.1311 10.8784 -3.0913 -3.1294 4.6309 -0.0000 -0.0000 0.0000 -88.5102 19.1181 36.4937 34.2695 -44.2834 -14.3009 -0.0000 -0.0000 2.4260 10.4392 -23.5152 -4.2043 -7.1250 0.0000 -0.0000 -11.5947 6.5149 10.4253 -0.0000 -0.0000 0.0000 37.8659 46.8127 15.9812 -157.3820 33.6684 -113.0746 0.0000 -0.0000 -12.2018 -18.1673 -13.5809 4.4063 7.1250 -0.0000 -0.0000 8.4793 -44.0795 0.1941
-0.5320 18.6329 5.9041 -1.7092 11.5323 -2.0691 0.0000 0.0000 0.0000 -13.0180 -8.8447 -2.5087 1.6925 8.1939 23.3046 1.1236 -3.7188 -19.1434 8.7666 -16.6552 -55.2795 0.0000 0.0000 0.0000 0.0000 0.0000 0.0000 0.0000 0.0000 0.0000 -0.0000 -0.0000 0.0000 -0.0000 -0.0000 0.0000 6.3616 4.7410 4.2368 2.3958 6.8790 -2.9937 -1.6032 3.2269 -5.0466 -0.8311 -4.7311 -9.7616 -9.2176 -5.0970 11.0009 -3.0647 -3.1204 4.6856 0.0000 -0.0000 0.0000 -88.5379 19.1960 36.3515 34.1847 -44.2211 -14.2417 -0.0000 -0.0000 2.4548 10.4125 -23.4523 -4.1828 -7.1250 0.0000 -0.0000 -11.6095 6.5799 10.4244 0.0000 -0.0000 0.0000 37.7790 46.7753 15.8975 -157.4109 33.6365 -113.0906 0.0000 -0.0000 -12.4557 -17.9635 -13.5720 4.3508 7.1250 -0.0000 -0.0000 8.6615 -44.0474 0.2053
-0.5333 18.6338 5.9033 -1.7779 11.6104 -2.0449 0.0000 0.0000 0.0000 -12.9425 -8.9560 -2.5494 1.6956 8.2009 23.3261 1.1265 -3.7239 -19.1684 8.7563 -16.6483 -55.2436 0.0000 0.0000 0.0000 0.0000 0.0000 0.0000 0.0000 0.0000 0.0000 -0.0000 -0.0000 0.0000 -0.0000 -0.0000 0.0000 6.2486 4.7203 4.0182 2.5224 6.8203 -2.8286 -1.3794 3.2166 -4.7802 -0.9884 -4.7025 -9.9053 -9.1950 -5.0318 10.9854 -3.0328 -3.0958 4.7137 -0.0000 -0.0000 0.0000 -88.7402 19.0193 35.9995 33.9135 -44.0205 -14.0529 -0.0000 -0.0000 2.5230 10.3788 -23.9764 -4.2564 -7.1250 0.0000 -0.0000 -11.6443 6.0663 10.5745 -0.0000 -0.0000 0.0000 37.3346 46.9612 15.4958 -157.3863 33.6636 -113.0771 0.0000 -0.0000 -12.7852 -17.8787 -13.3816 4.2696 7.1250 -0.0000 -0.0000 8.6955 -43.8416 0.2506
-0.5336 18.6343 5.9019 -1.8009 11.6690 -2.0173 0.0000 0.0000 0.0000 -12.9206 -9.0494 -2.5728 1.6966 8.2032 23.3330 1.1270 -3.7254 -19.1719 8.7508 -16.6447 -55.2242 0.0000 0.0000 0.0000 0.0000 0.0000 0.0000 0.0000 0.0000 0.0000 -0.0000 -0.0000 0.0000 -0.0000 -0.0000 0.0000 5.9653 4.6634 3.4712 2.7294 6.6633 -2.4259 -0.9338 3.1800 -4.1125 -1.0783 -4.6379 -10.2061 -9.2505 -4.9249 10.7921 -3.0335 -3.0511 4.7114 -0.0000 -0.0000 0.0000 -89.1367 18.4367 35.2724 33.2964 -43.5567 -13.6259 -0.0000 -0.0000 2.6842 10.5300 -25.7280 -4.6133 -7.1250 0.0000 -0.0000 -11.6108 4.3215 10.9342 -0.0000 -0.0000 0.0000 36.4901 47.5077 14.7343 -157.3466 33.7076 -113.0550 0.0000 -0.0000 -13.0480 -17.6467 -13.3171 4.1908 7.1250 -0.0000 -0.0000 8.8901 -43.7495 0.2767
-0.5339 18.6351 5.8995 -1.7627 11.7544 -1.9775 0.0000 0.0000 0.0000 -12.9541 -9.0927 -2.6202 1.6963 8.2026 23.3310 1.1215 -3.7751 -19.1162 8.7656 -16.6545 -55.2761 0.0000 0.0000 0.0000 0.0000 0.0000 0.0000 0.0000 0.0000 0.0000 -0.0000 -0.0000 0.0000 -0.0000 -0.0000 0.0000 5.8500 4.6523 3.4730 2.7181 6.6407 -2.4024 -0.8809 3.1728 -4.1010 -1.1837 -4.6542 -10.2547 -9.1223 -4.9394 10.8544 -2.9811 -3.0571 4.7445 0.0000 0.0000 0.0000 -89.1234 18.3992 35.1267 33.1341 -43.4328 -13.5142 -0.0000 -0.0000 2.6525 10.5998 -25.6483 -4.6310 -7.1250 0.0000 -0.0000 -11.5657 4.3918 10.8743 0.0000 0.0000 0.0000 36.3408 47.5147 14.6221 -157.3574 33.6956 -113.0610 0.0000 -0.0000 -12.8589 -17.6885 -13.4885 4.2543 7.1250 -0.0000 -0.0000 8.8909 -43.9305 0.2367
-0.5346 18.6357 5.8964 -1.7005 11.8432 -1.9188 0.0000 0.0000 0.0000 -13.0065 -9.1318 -2.6965 1.6959 8.2016 23.3282 1.1157 -3.8274 -19.0577 8.7764 -16.6616 -55.3135 0.0000 0.0000 0.0000 0.0000 0.0000 0.0000 0.0000 0.0000 0.0000 -0.0000 -0.0000 0.0000 -0.0000 -0.0000 0.0000 5.7732 4.7353 3.4708 2.5699 6.7419 -2.4228 -0.9971 3.2225 -4.1058 -0.9667 -4.7645 -10.1738 -9.0621 -5.1339 10.8600 -3.0068 -3.1385 4.7184 0.0000 0.0000 0.0000 -88.7533 18.3483 35.2826 32.9471 -43.2893 -13.3858 -0.0000 -0.0000 2.7131 10.4186 -25.6521 -4.5511 -7.1250 0.0000 -0.0000 -11.6750 4.4094 10.9777 0.0000 0.0000 0.0000 36.3486 47.2599 14.4467 -157.4008 33.6477 -113.0850 0.0000 -0.0000 -12.6436 -17.7592 -13.7385 4.3497 7.1250 -0.0000 -0.0000 8.8838 -44.1955 0.1779
-0.5345 18.6359 5.8939 -1.6582 11.8888 -1.8854 0.0000 0.0000 0.0000 -13.0504 -9.1824 -2.7309 1.6956 8.2009 23.3259 1.1146 -3.8399 -19.0466 8.7646 -16.6538 -55.2725 0.0000 0.0000 0.0000 0.0000 0.0000 0.0000 0.0000 0.0000 0.0000 -0.0000 -0.0000 0.0000 -0.0000 -0.0000 0.0000 5.8013 4.9174 3.5281 2.2854 6.9827 -2.4970 -1.3247 3.3335 -4.1634 -0.3216 -4.9498 -10.0021 -9.1453 -5.4850 10.8300 -3.1502 -3.2860 4.6402 -0.0000 -0.0000 0.0000 -87.9828 18.3652 35.7890 32.8146 -43.1870 -13.2950 -0.0000 -0.0000 2.9340 10.3016 -25.6251 -4.4946 -7.1250 0.0000 -0.0000 -11.7445 4.4496 11.0370 -0.0000 -0.0000 0.0000 36.5593 46.7280 14.0938 -157.4952 33.5429 -113.1373 0.0000 -0.0000 -12.7422 -17.5050 -13.7651 4.2917 7.1250 -0.0000 -0.0000 9.1197 -44.1939 0.1830
-0.5337 18.6359 5.8919 -1.6770 11.8950 -1.8746 0.0000 0.0000 0.0000 -13.0278 -9.1820 -2.7591 1.6959 8.2017 23.3286 1.1128 -3.8622 -19.0268 8.7656 -16.6545 -55.2761 0.0000 0.0000 0.0000 0.0000 0.0000 0.0000 0.0000 0.0000 0.0000 -0.0000 -0.0000 0.0000 -0.0000 -0.0000 0.0000 5.8518 5.0079 3.5960 2.1405 7.1075 -2.5360 -1.5150 3.3893 -4.2107 0.0816 -5.0397 -9.9491 -9.2526 -5.6593 10.8182 -3.2557 -3.3610 4.6022 -0.0000 -0.0000 0.0000 -87.5885 18.3783 35.9103 32.7047 -43.1018 -13.2199 -0.0000 -0.0000 3.1614 10.3559 -25.5797 -4.5113 -7.1250 0.0000 -0.0000 -11.7101 4.4880 10.9946 -0.0000 -0.0000 0.0000 36.7083 46.4886 13.9296 -157.5678 33.4621 -113.1774 0.0000 -0.0000 -12.8345 -17.4560 -13.7202 4.2654 7.1250 -0.0000 -0.0000 9.1535 -44.1423 0.1955
